<svg viewBox="0 0 20 20" fill="none" xmlns="http://www.w3.org/2000/svg">
  <path d="M10 2C5.58 2 2 5.58 2 10C2 13.42 4.16 16.34 7.25 17.5C7.75 17.58 7.96 17.25 7.96 16.96C7.96 16.71 7.94 15.96 7.94 15.25C5.5 15.75 4.96 14.75 4.75 14.25C4.58 13.88 4.04 13.13 3.71 12.88C3.46 12.71 2.96 12.13 3.67 12.13C4.33 12.13 4.79 12.75 5 13.13C5.5 14.13 6.46 13.75 7.04 13.54C7.13 13.04 7.33 12.71 7.58 12.5C5.5 12.25 3.33 11.46 3.33 8.25C3.33 7.33 3.67 6.54 4.08 5.96C3.96 5.67 3.67 4.79 4.13 3.63C4.13 3.63 4.88 3.38 7.96 5.04C8.67 4.83 9.42 4.75 10.17 4.75C10.92 4.75 11.67 4.83 12.38 5.04C15.46 3.38 16.21 3.63 16.21 3.63C16.67 4.79 16.38 5.67 16.25 5.96C16.67 6.54 17 7.33 17 8.25C17 11.46 14.83 12.25 12.75 12.5C13.04 12.79 13.29 13.29 13.29 14.08C13.29 15.25 13.25 16.17 13.25 16.96C13.25 17.25 13.46 17.58 13.96 17.5C17.04 16.34 19.2 13.42 19.2 10C19.2 5.58 15.62 2 11.2 2H10Z" fill="#4285f4"/>
</svg>

